HIERARCHY
ROOT Hips
{
	OFFSET 0.000000 0.000000 0.000000
	CHANNELS 6 Xposition Yposition Zposition Xrotation Yrotation Zrotation
	JOINT LeftUpLeg_virtual
	{
		OFFSET 0.000000 0.000000 0.000000
		CHANNELS 3 Xrotation Yrotation Zrotation
		JOINT LeftUpLeg
		{
			OFFSET 15.427100 -6.655098 0.678600
			CHANNELS 3 Xrotation Yrotation Zrotation
			JOINT LeftLeg
			{
				OFFSET 4.081073 -39.591068 13.024000
				CHANNELS 3 Xrotation Yrotation Zrotation
				JOINT LeftFoot
				{
					OFFSET -4.081074 -37.707932 -15.979700
					CHANNELS 3 Xrotation Yrotation Zrotation
					JOINT LeftToeBase
					{
						OFFSET 5.346399 -15.068900 20.645000
						CHANNELS 3 Xrotation Yrotation Zrotation
						JOINT LeftToe_End
						{
							OFFSET 2.754700 0.931300 11.300900
							CHANNELS 3 Xrotation Yrotation Zrotation
							End Site
							{
								OFFSET 0 0 0
							}
						}
					}
				}
			}
		}
	}
	JOINT RightUpLeg_virtual
	{
		OFFSET 0.000000 0.000000 0.000000
		CHANNELS 3 Xrotation Yrotation Zrotation
		JOINT RightUpLeg
		{
			OFFSET -15.569500 -6.655098 0.678600
			CHANNELS 3 Xrotation Yrotation Zrotation
			JOINT RightLeg
			{
				OFFSET -4.081825 -39.591045 13.023800
				CHANNELS 3 Xrotation Yrotation Zrotation
				JOINT RightFoot
				{
					OFFSET 4.081824 -37.707954 -15.979600
					CHANNELS 3 Xrotation Yrotation Zrotation
					JOINT RightToeBase
					{
						OFFSET -5.346400 -15.068900 20.645000
						CHANNELS 3 Xrotation Yrotation Zrotation
						JOINT RightToe_End
						{
							OFFSET -2.754700 0.931300 11.300900
							CHANNELS 3 Xrotation Yrotation Zrotation
							End Site
							{
								OFFSET 0 0 0
							}
						}
					}
				}
			}
		}
	}
	JOINT Spine_virtual
	{
		OFFSET 0.000000 0.000000 0.000000
		CHANNELS 3 Xrotation Yrotation Zrotation
		JOINT Spine
		{
			OFFSET -0.279200 12.230698 -2.892100
			CHANNELS 3 Xrotation Yrotation Zrotation
			JOINT Spine1
			{
				OFFSET -0.232667 10.192268 -1.242267
				CHANNELS 3 Xrotation Yrotation Zrotation
				JOINT Spine1_split
				{
					OFFSET -0.232667 10.192268 -1.242267
					CHANNELS 3 Xrotation Yrotation Zrotation
					JOINT Spine2
					{
						OFFSET -0.232667 10.192268 -1.242267
						CHANNELS 3 Xrotation Yrotation Zrotation
						JOINT Neck_virtual
						{
							OFFSET 0.000000 0.000000 0.000000
							CHANNELS 3 Xrotation Yrotation Zrotation
							JOINT Neck
							{
								OFFSET -0.418800 17.814194 8.416900
								CHANNELS 3 Xrotation Yrotation Zrotation
								JOINT Head
								{
									OFFSET 0.000000 7.031097 3.806800
									CHANNELS 3 Xrotation Yrotation Zrotation
									JOINT HeadTop_End
									{
										OFFSET 0.000000 24.646606 12.978600
										CHANNELS 3 Xrotation Yrotation Zrotation
										End Site
										{
											OFFSET 0 0 0
										}
									}
								}
							}
						}
						JOINT LeftShoulder_virtual
						{
							OFFSET 0.000000 0.000000 0.000000
							CHANNELS 3 Xrotation Yrotation Zrotation
							JOINT LeftShoulder
							{
								OFFSET 8.476499 7.247704 -3.868750
								CHANNELS 3 Xrotation Yrotation Zrotation
								JOINT LeftShoulder_split
								{
									OFFSET 8.476499 7.247704 -3.868750
									CHANNELS 3 Xrotation Yrotation Zrotation
									JOINT LeftArm
									{
										OFFSET 9.308998 -2.777710 0.208600
										CHANNELS 3 Xrotation Yrotation Zrotation
										JOINT LeftForeArm
										{
											OFFSET 29.972298 0.000000 0.000000
											CHANNELS 3 Xrotation Yrotation Zrotation
											JOINT LeftHand
											{
												OFFSET 26.026505 0.000000 0.000000
												CHANNELS 3 Xrotation Yrotation Zrotation
												End Site
												{
													OFFSET 0 0 0
												}
											}
										}
									}
								}
							}
						}
						JOINT RightShoulder_virtual
						{
							OFFSET 0.000000 0.000000 0.000000
							CHANNELS 3 Xrotation Yrotation Zrotation
							JOINT RightShoulder
							{
								OFFSET -7.570500 7.247704 -3.868750
								CHANNELS 3 Xrotation Yrotation Zrotation
								JOINT RightShoulder_split
								{
									OFFSET -7.570500 7.247704 -3.868750
									CHANNELS 3 Xrotation Yrotation Zrotation
									JOINT RightArm
									{
										OFFSET -9.308998 -2.777710 0.208500
										CHANNELS 3 Xrotation Yrotation Zrotation
										JOINT RightForeArm
										{
											OFFSET -29.972300 0.000000 0.000000
											CHANNELS 3 Xrotation Yrotation Zrotation
											JOINT RightHand
											{
												OFFSET -26.026505 0.000000 0.000000
												CHANNELS 3 Xrotation Yrotation Zrotation
												End Site
												{
													OFFSET 0 0 0
												}
											}
										}
									}
								}
							}
						}
					}
				}
			}
		}
	}
}
MOTION
Frames: 10
Frame Time: 0.03333333
-0.242515 74.020073 2.266468 0.000000 0.000000 0.000000 6.634030 -50.980214 7.588795 -63.245708 24.716920 37.254020 47.293207 -16.316200 3.360399 3.308388 2.890858 -8.874527 -1.183055 -7.853921 1.634885 0.000000 0.000000 0.000000 3.701090 -50.500055 7.132191 -24.961068 1.819975 -30.139316 44.797305 4.359034 -11.124210 -25.086337 -3.012166 25.027104 4.015062 5.168216 2.359761 0.000000 0.000000 0.000000 9.335234 -50.624618 9.254781 13.047726 2.583092 -3.327688 4.537845 6.642192 -3.764245 0.450169 -2.643392 1.336146 0.000000 0.000000 0.000000 -4.122400 6.179120 -2.085673 0.788893 10.589251 -1.163934 -4.615734 24.659920 -1.919666 0.000000 0.000000 0.000000 -5.342235 6.156899 -2.395679 -1.425599 -10.510731 -4.619518 4.201345 -0.802224 -0.156380 -14.354332 2.081502 -44.348872 -23.144673 -27.607469 -15.599925 0.000000 0.000000 0.000000 -5.034637 5.842341 -2.260339 -2.607206 13.649681 0.999433 -2.282420 -4.656969 2.729434 0.109036 -14.750900 58.535322 -10.159796 44.497542 18.322968 0.000000 0.000000 0.000000 
-0.253413 73.924431 2.059181 0.000000 0.000000 0.000000 6.896106 -51.477838 7.667435 -63.073464 24.743673 37.536985 47.210305 -16.336726 3.367820 2.235408 2.710247 -8.296005 -1.208897 -7.800067 1.646456 0.000000 0.000000 0.000000 3.929267 -50.305166 7.066660 -25.036639 1.962774 -29.876477 44.739990 4.447367 -11.080918 -25.125250 -2.891750 25.376519 3.849242 5.254492 2.279903 0.000000 0.000000 0.000000 9.268172 -50.907695 9.154068 13.081676 2.609842 -3.531337 4.620706 6.643382 -3.843742 0.534680 -2.489417 1.359986 0.000000 0.000000 0.000000 -4.154940 6.196268 -2.127363 0.482826 10.524221 -1.195284 -4.715876 24.693132 -1.882127 0.000000 0.000000 0.000000 -5.187577 6.188355 -2.451307 -1.419281 -10.511602 -4.513254 3.943299 -0.728178 0.041778 -14.277827 2.112795 -43.946516 -23.084250 -27.384400 -15.591153 0.000000 0.000000 0.000000 -5.022109 5.840454 -2.388525 -2.521990 14.325111 1.180601 -1.662215 -4.920408 1.974333 0.450929 -15.057524 56.329482 -7.315749 40.818440 16.794440 0.000000 0.000000 0.000000 
-0.249278 73.734207 1.667297 0.000000 0.000000 0.000000 7.408253 -52.173667 7.894769 -62.446664 24.906500 37.875796 46.719740 -16.282648 3.330153 0.965924 2.711170 -7.996587 -1.333481 -7.659483 1.723755 0.000000 0.000000 0.000000 4.133276 -50.494363 7.038460 -25.623369 2.048657 -29.491971 44.924750 4.138658 -11.129511 -24.777322 -2.546893 25.580561 3.681333 5.211794 2.357447 0.000000 0.000000 0.000000 9.326247 -51.151218 9.099978 13.111936 2.720319 -3.733156 4.776173 6.654634 -3.970027 0.376274 -2.426840 1.368422 0.000000 0.000000 0.000000 -4.094094 6.211463 -2.242470 0.108686 10.446429 -1.256511 -4.720295 24.652519 -1.928453 0.000000 0.000000 0.000000 -4.945891 6.194903 -2.611732 -1.394144 -10.290769 -4.337924 3.682719 -0.669743 0.118144 -14.680809 2.195864 -43.306982 -22.817746 -27.182269 -15.411518 0.000000 0.000000 0.000000 -4.952829 5.860739 -2.614794 -2.581078 15.046543 1.422637 -1.404507 -4.784083 1.264123 1.383574 -15.771940 54.440057 -1.417699 37.306401 13.406913 0.000000 0.000000 0.000000 
-0.303375 73.532631 1.128986 0.000000 0.000000 0.000000 7.979214 -52.723460 8.193799 -61.592590 25.153599 38.202621 45.816209 -16.252430 3.266626 0.288799 2.712355 -8.164803 -1.566455 -7.447578 1.809422 0.000000 0.000000 0.000000 4.400584 -50.773806 7.167548 -26.525142 2.123320 -29.158180 45.433387 3.369378 -11.326165 -24.338877 -2.120570 25.680236 3.549104 5.022513 2.533000 0.000000 0.000000 0.000000 9.432764 -51.131845 9.134631 13.102541 2.881268 -3.883357 4.962932 6.651807 -4.144163 0.178415 -2.634968 1.290895 0.000000 0.000000 0.000000 -3.929610 6.193185 -2.431850 -0.258502 10.358379 -1.355874 -4.599145 24.507593 -2.065555 0.000000 0.000000 0.000000 -4.685315 6.162533 -2.862956 -1.354615 -9.843839 -4.064115 3.440786 -0.856082 0.142530 -15.550362 2.196019 -42.636653 -22.362171 -27.022493 -15.118815 0.000000 0.000000 0.000000 -4.837476 5.858261 -2.893161 -2.735549 15.757602 1.802130 -1.244699 -4.739873 0.769195 2.914433 -16.097422 53.096446 6.010918 34.889969 9.264623 0.000000 0.000000 0.000000 
-0.453501 73.473488 0.562351 0.000000 0.000000 0.000000 8.285293 -52.701022 8.409669 -60.710635 25.461038 38.419551 44.520423 -16.275253 3.127414 0.819896 2.418313 -8.790723 -1.922318 -7.200458 1.837647 0.000000 0.000000 0.000000 4.639560 -50.721343 7.399116 -27.317632 2.110699 -28.962259 46.102571 2.103808 -11.757788 -23.887950 -1.817368 25.914803 3.025207 4.698484 2.659100 0.000000 0.000000 0.000000 9.419973 -50.568593 9.194976 13.040418 3.014809 -3.989357 5.154771 6.622725 -4.355741 -0.051982 -3.130405 1.122491 0.000000 0.000000 0.000000 -3.724430 6.109384 -2.683234 -0.551045 10.228555 -1.519101 -4.377126 24.203875 -2.297281 0.000000 0.000000 0.000000 -4.460929 6.088922 -3.177950 -1.294321 -9.240709 -3.702214 3.223497 -1.201961 0.365666 -16.713560 1.946912 -42.202328 -21.774896 -27.055136 -14.801971 0.000000 0.000000 0.000000 -4.695396 5.801979 -3.171389 -2.856978 16.464661 2.386261 -1.334591 -4.918426 0.649135 4.963199 -15.453177 52.301163 13.902952 33.636964 4.842396 0.000000 0.000000 0.000000 
-0.686621 73.727684 -0.000034 0.000000 0.000000 0.000000 8.223643 -51.792563 8.472829 -60.024877 25.772250 38.412591 42.782259 -16.284778 2.864170 2.616880 1.597294 -9.584811 -2.271166 -6.943023 1.813215 0.000000 0.000000 0.000000 4.930822 -49.827876 7.743754 -27.454557 1.957786 -28.892694 46.677530 0.399849 -12.425836 -23.606604 -1.719295 26.382347 2.003734 4.291104 2.615870 0.000000 0.000000 0.000000 9.254242 -49.195073 9.245384 12.965048 3.074202 -4.045330 5.341198 6.552743 -4.578328 -0.245165 -3.419021 1.080734 0.000000 0.000000 0.000000 -3.530481 5.971689 -2.955930 -0.802505 10.025347 -1.757117 -4.101004 23.635301 -2.627048 0.000000 0.000000 0.000000 -4.292757 5.954513 -3.503951 -1.211289 -8.590370 -3.268498 3.033628 -1.512474 0.901335 -17.970653 1.374616 -42.209206 -21.110288 -27.401426 -14.551073 0.000000 0.000000 0.000000 -4.570405 5.703537 -3.417622 -2.853253 17.158120 3.177521 -1.282003 -4.827730 0.478689 7.325703 -13.475594 51.538825 21.248010 32.817686 0.632436 0.000000 0.000000 0.000000 
-1.012587 74.276642 -0.679260 0.000000 0.000000 0.000000 7.839444 -49.799906 8.357649 -59.492478 25.935827 38.141026 40.847718 -16.266770 2.433814 5.117822 0.251433 -10.433429 -2.366876 -6.694728 1.686445 0.000000 0.000000 0.000000 5.351452 -47.820951 8.134274 -26.681316 1.457881 -28.911470 46.835092 -1.643194 -13.232277 -23.828519 -1.938115 26.980898 1.200433 3.875782 2.395968 0.000000 0.000000 0.000000 8.941347 -46.994509 9.227368 12.937586 3.028693 -4.109979 5.562331 6.432529 -4.817525 -0.427348 -3.522858 1.022578 0.000000 0.000000 0.000000 -3.369105 5.798866 -3.203062 -1.148522 9.655945 -2.072161 -3.828473 22.746289 -3.021278 0.000000 0.000000 0.000000 -4.186468 5.787750 -3.795716 -1.121818 -8.026627 -2.780411 2.942432 -1.653689 1.651142 -19.268807 0.440949 -42.811117 -20.441653 -28.056389 -14.409136 0.000000 0.000000 0.000000 -4.438306 5.563810 -3.606330 -2.678378 17.689399 4.082784 -1.138111 -4.610381 0.056834 10.080920 -9.754950 50.233955 27.181011 31.861965 -2.839904 0.000000 0.000000 0.000000 
-1.364669 75.051468 -1.384129 0.000000 0.000000 0.000000 7.435882 -46.683595 8.179860 -58.896742 25.938571 37.431872 38.992464 -15.990323 1.803811 7.017192 -1.194764 -11.036165 -1.928569 -6.460281 1.393676 0.000000 0.000000 0.000000 5.686537 -44.766446 8.357600 -25.062112 0.518539 -28.943828 46.363225 -3.847632 -14.046051 -24.784050 -2.414883 27.578822 1.036211 3.500554 2.073808 0.000000 0.000000 0.000000 8.575633 -44.003555 9.096579 13.014337 2.868730 -4.214438 5.861087 6.307748 -5.049815 -0.557052 -3.469841 1.070593 0.000000 0.000000 0.000000 -3.237333 5.632399 -3.406042 -1.696514 9.026439 -2.408717 -3.595002 21.505692 -3.407676 0.000000 0.000000 0.000000 -4.078505 5.642893 -4.013825 -1.037909 -7.596254 -2.311304 2.812570 -1.767788 2.487964 -20.618791 -0.766191 -44.052309 -19.845668 -28.990987 -14.412447 0.000000 0.000000 0.000000 -4.266192 5.424212 -3.733913 -2.292441 17.777463 4.957456 -1.124231 -4.381288 -0.619904 13.054550 -4.651900 47.964119 31.035584 30.607218 -5.227860 0.000000 0.000000 0.000000 
-1.665388 75.938675 -2.207722 0.000000 0.000000 0.000000 7.188474 -42.829978 7.966461 -57.889842 25.514599 36.103823 37.798748 -15.027253 1.116746 7.004210 -2.104687 -11.264707 -1.135769 -6.225499 0.913055 0.000000 0.000000 0.000000 5.928635 -40.911873 8.392077 -22.897378 -0.765059 -28.928406 45.371956 -5.950907 -14.696004 -26.564081 -2.901018 27.935028 1.598801 3.157227 1.870152 0.000000 0.000000 0.000000 8.222279 -40.411784 8.814252 13.205610 2.650016 -4.339337 6.257857 6.211445 -5.243423 -0.506491 -3.168630 1.200622 0.000000 0.000000 0.000000 -3.082799 5.530154 -3.558267 -2.496543 8.154920 -2.689558 -3.454966 19.925270 -3.687413 0.000000 0.000000 0.000000 -3.922855 5.559899 -4.127885 -0.960610 -7.337369 -1.838092 2.749485 -1.842607 3.055460 -22.079645 -2.087499 -45.797436 -19.385030 -30.141666 -14.607664 0.000000 0.000000 0.000000 -4.057054 5.324674 -3.818673 -1.702972 17.080732 5.619048 -1.234977 -4.322147 -1.362304 16.419327 1.054241 44.542843 32.797182 29.639264 -6.713637 0.000000 0.000000 0.000000 
-1.840641 76.670547 -3.029655 0.000000 0.000000 0.000000 7.151907 -38.849057 7.696184 -55.957793 24.347468 34.083689 38.110588 -13.203625 0.593344 4.692076 -1.883856 -11.345725 -0.459522 -5.949645 0.171798 0.000000 0.000000 0.000000 6.058416 -36.806824 8.171144 -20.856814 -2.214557 -28.873487 44.157388 -7.823370 -15.024488 -28.699608 -3.314803 28.059110 2.292958 2.770360 1.962677 0.000000 0.000000 0.000000 7.969820 -36.603899 8.381468 13.433031 2.441918 -4.479354 6.739592 6.166988 -5.382241 -0.215677 -2.851823 1.396692 0.000000 0.000000 0.000000 -2.854540 5.524123 -3.660857 -3.536769 7.116178 -2.861164 -3.473009 18.008559 -3.729349 0.000000 0.000000 0.000000 -3.686205 5.559450 -4.134969 -0.889634 -7.206311 -1.337457 2.763350 -1.908919 3.152448 -23.580245 -3.375192 -47.794293 -19.145789 -31.499009 -15.035738 0.000000 0.000000 0.000000 -3.821579 5.275629 -3.862721 -0.937171 15.304661 5.964611 -1.499208 -4.870380 -1.545732 20.415526 6.816316 40.541305 33.106094 29.946841 -7.976055 0.000000 0.000000 0.000000 
